<?xml version="1.0" encoding="utf-8"?>
<!-- Generator: Adobe Illustrator 19.1.0, SVG Export Plug-In . SVG Version: 6.00 Build 0)  -->
<svg version="1.1" id="Layer_1" xmlns="http://www.w3.org/2000/svg" xmlns:xlink="http://www.w3.org/1999/xlink" x="0px" y="0px"
	 width="241.6px" height="88.2px" viewBox="0 0 241.6 88.2" enable-background="new 0 0 241.6 88.2" xml:space="preserve">
<g>
	<path fill="#FFFFFF" d="M27.4,18.7c0,0.1,0,0.1-0.1,0.2s-0.1,0.1-0.2,0.1c-0.1,0-0.2,0.1-0.4,0.1c-0.2,0-0.4,0-0.6,0
		c-0.3,0-0.5,0-0.6,0c-0.2,0-0.3-0.1-0.4-0.1c-0.1,0-0.2-0.1-0.2-0.1c0-0.1-0.1-0.1-0.1-0.2v-8.5h-8.7v8.5c0,0.1,0,0.1-0.1,0.2
		c0,0.1-0.1,0.1-0.2,0.1s-0.2,0.1-0.4,0.1s-0.4,0-0.6,0c-0.2,0-0.4,0-0.6,0c-0.2,0-0.3-0.1-0.4-0.1s-0.2-0.1-0.2-0.1
		c0-0.1-0.1-0.1-0.1-0.2V0.4c0-0.1,0-0.1,0.1-0.2c0-0.1,0.1-0.1,0.2-0.1s0.2-0.1,0.4-0.1c0.2,0,0.4,0,0.6,0c0.2,0,0.5,0,0.6,0
		S15.8,0,15.9,0s0.2,0.1,0.2,0.1c0,0.1,0.1,0.1,0.1,0.2V8h8.7V0.4c0-0.1,0-0.1,0.1-0.2c0-0.1,0.1-0.1,0.2-0.1c0.1,0,0.2-0.1,0.4-0.1
		c0.2,0,0.4,0,0.6,0c0.2,0,0.4,0,0.6,0C26.9,0,27,0,27.1,0c0.1,0,0.2,0.1,0.2,0.1s0.1,0.1,0.1,0.2V18.7z"/>
	<path fill="#FFFFFF" d="M48.6,18.2c0.1,0.2,0.1,0.4,0.1,0.5s0,0.2-0.1,0.3s-0.2,0.1-0.4,0.1s-0.4,0-0.7,0s-0.5,0-0.7,0
		s-0.3,0-0.4-0.1c-0.1,0-0.2-0.1-0.2-0.1c0-0.1-0.1-0.1-0.1-0.2l-1.6-4.6h-7.9l-1.6,4.6c0,0.1-0.1,0.2-0.1,0.2
		c0,0.1-0.1,0.1-0.2,0.2s-0.2,0.1-0.4,0.1c-0.2,0-0.4,0-0.7,0c-0.3,0-0.5,0-0.7,0c-0.2,0-0.3-0.1-0.4-0.1c-0.1-0.1-0.1-0.2-0.1-0.3
		c0-0.1,0-0.3,0.1-0.5l6.4-17.7c0-0.1,0.1-0.2,0.2-0.3C39,0.1,39.1,0.1,39.2,0c0.1,0,0.3-0.1,0.5-0.1s0.4,0,0.7,0c0.3,0,0.6,0,0.8,0
		s0.4,0,0.5,0.1c0.1,0,0.2,0.1,0.3,0.2c0.1,0.1,0.1,0.2,0.2,0.3L48.6,18.2z M40.3,2.5L40.3,2.5L37,12.1h6.6L40.3,2.5z"/>
	<path fill="#FFFFFF" d="M66.1,16.4c0,0.2,0,0.3,0,0.4c0,0.1,0,0.2-0.1,0.3s-0.1,0.2-0.1,0.2c0,0.1-0.1,0.2-0.2,0.3
		c-0.1,0.1-0.3,0.2-0.6,0.5c-0.3,0.2-0.7,0.4-1.2,0.6c-0.5,0.2-1,0.4-1.6,0.5c-0.6,0.1-1.3,0.2-2,0.2c-1.2,0-2.4-0.2-3.4-0.6
		c-1-0.4-1.9-1-2.6-1.8s-1.2-1.8-1.6-3c-0.4-1.2-0.6-2.6-0.6-4.1c0-1.6,0.2-3,0.6-4.2s1-2.3,1.7-3.2c0.7-0.9,1.6-1.5,2.6-2
		c1-0.5,2.2-0.7,3.4-0.7c0.6,0,1.1,0.1,1.6,0.2c0.5,0.1,1,0.2,1.4,0.4s0.8,0.3,1.2,0.5c0.3,0.2,0.6,0.4,0.7,0.5s0.2,0.2,0.3,0.3
		c0,0.1,0.1,0.1,0.1,0.2s0,0.2,0.1,0.3c0,0.1,0,0.3,0,0.5c0,0.2,0,0.4,0,0.5s0,0.3-0.1,0.3c0,0.1-0.1,0.2-0.1,0.2
		c-0.1,0-0.1,0.1-0.2,0.1c-0.1,0-0.3-0.1-0.6-0.3c-0.2-0.2-0.6-0.4-1-0.6c-0.4-0.2-0.9-0.4-1.4-0.6C62,2.1,61.4,2,60.6,2
		c-0.9,0-1.6,0.2-2.3,0.5C57.6,2.8,57,3.3,56.5,4c-0.5,0.7-0.9,1.5-1.2,2.4s-0.4,2-0.4,3.3c0,1.2,0.1,2.3,0.4,3.2
		c0.3,0.9,0.6,1.7,1.1,2.3c0.5,0.6,1.1,1.1,1.8,1.4c0.7,0.3,1.5,0.5,2.4,0.5c0.8,0,1.4-0.1,2-0.3c0.6-0.2,1.1-0.4,1.5-0.6
		c0.4-0.2,0.7-0.4,1-0.6c0.3-0.2,0.5-0.3,0.6-0.3c0.1,0,0.1,0,0.2,0c0,0,0.1,0.1,0.1,0.2c0,0.1,0.1,0.2,0.1,0.3
		C66.1,16,66.1,16.2,66.1,16.4z"/>
	<path fill="#FFFFFF" d="M73.8,18.7c0,0.1,0,0.1-0.1,0.2c0,0.1-0.1,0.1-0.2,0.1s-0.2,0.1-0.4,0.1c-0.2,0-0.4,0-0.6,0
		c-0.2,0-0.4,0-0.6,0c-0.2,0-0.3-0.1-0.4-0.1s-0.2-0.1-0.2-0.1s-0.1-0.1-0.1-0.2V0.4c0-0.1,0-0.1,0.1-0.2c0-0.1,0.1-0.1,0.2-0.1
		S71.8,0,72-0.1s0.4,0,0.6,0c0.2,0,0.5,0,0.6,0C73.3,0,73.4,0,73.5,0s0.2,0.1,0.2,0.1c0,0.1,0.1,0.1,0.1,0.2V18.7z"/>
	<path fill="#FFFFFF" d="M91.3,18c0,0.2,0,0.3,0,0.5c0,0.1-0.1,0.2-0.1,0.3c0,0.1-0.1,0.2-0.2,0.2c-0.1,0-0.1,0.1-0.2,0.1h-9.2
		c-0.2,0-0.4-0.1-0.6-0.2c-0.2-0.2-0.3-0.4-0.3-0.8V1c0-0.4,0.1-0.7,0.3-0.8S81.4,0,81.6,0h9.1c0.1,0,0.1,0,0.2,0.1
		c0.1,0,0.1,0.1,0.2,0.2s0.1,0.2,0.1,0.3s0,0.3,0,0.5c0,0.2,0,0.3,0,0.5s-0.1,0.2-0.1,0.3C91,2,91,2,90.9,2.1
		c-0.1,0-0.1,0.1-0.2,0.1h-7.5v6h6.4c0.1,0,0.1,0,0.2,0.1S90,8.3,90,8.4c0,0.1,0.1,0.2,0.1,0.3c0,0.1,0,0.3,0,0.5c0,0.2,0,0.3,0,0.5
		c0,0.1-0.1,0.2-0.1,0.3c0,0.1-0.1,0.1-0.2,0.2c-0.1,0-0.1,0.1-0.2,0.1h-6.4V17h7.6c0.1,0,0.1,0,0.2,0.1c0.1,0,0.1,0.1,0.2,0.2
		s0.1,0.2,0.1,0.3C91.3,17.7,91.3,17.9,91.3,18z"/>
	<path fill="#FFFFFF" d="M111.7,18c0,0.2,0,0.4-0.1,0.5c-0.1,0.1-0.2,0.3-0.3,0.3c-0.1,0.1-0.2,0.2-0.4,0.2c-0.1,0-0.3,0.1-0.4,0.1
		h-0.8c-0.3,0-0.5,0-0.7-0.1c-0.2-0.1-0.4-0.2-0.6-0.3c-0.2-0.1-0.4-0.3-0.5-0.6c-0.2-0.2-0.4-0.6-0.6-0.9l-5.8-10.9
		c-0.3-0.6-0.6-1.1-0.9-1.8c-0.3-0.6-0.6-1.2-0.9-1.8h0c0,0.7,0,1.4,0,2.2c0,0.7,0,1.5,0,2.2v11.5c0,0.1,0,0.1-0.1,0.2
		c0,0.1-0.1,0.1-0.2,0.1c-0.1,0-0.2,0.1-0.4,0.1c-0.2,0-0.4,0-0.6,0c-0.2,0-0.5,0-0.6,0c-0.2,0-0.3-0.1-0.4-0.1
		c-0.1,0-0.2-0.1-0.2-0.1s-0.1-0.1-0.1-0.2V1.1c0-0.4,0.1-0.7,0.3-0.8S98.1,0,98.3,0h1.2c0.3,0,0.5,0,0.7,0.1c0.2,0,0.4,0.1,0.5,0.2
		s0.3,0.3,0.5,0.5c0.1,0.2,0.3,0.5,0.5,0.8l4.5,8.4c0.3,0.5,0.5,1,0.8,1.5c0.3,0.5,0.5,1,0.7,1.4c0.2,0.5,0.5,0.9,0.7,1.4
		s0.5,0.9,0.7,1.4h0c0-0.8,0-1.6,0-2.4c0-0.8,0-1.7,0-2.4V0.4c0-0.1,0-0.1,0.1-0.2s0.1-0.1,0.2-0.2c0.1,0,0.2-0.1,0.4-0.1
		c0.2,0,0.4,0,0.6,0c0.2,0,0.4,0,0.6,0c0.2,0,0.3,0.1,0.4,0.1c0.1,0,0.2,0.1,0.2,0.2c0,0.1,0.1,0.1,0.1,0.2V18z"/>
	<path fill="#FFFFFF" d="M133.3,9.3c0,1.7-0.2,3.1-0.6,4.3s-1,2.3-1.9,3.1c-0.8,0.8-1.8,1.4-3,1.8c-1.2,0.4-2.6,0.6-4.2,0.6h-4
		c-0.2,0-0.4-0.1-0.6-0.2c-0.2-0.2-0.3-0.4-0.3-0.8V1c0-0.4,0.1-0.7,0.3-0.8s0.4-0.2,0.6-0.2h4.3c1.7,0,3,0.2,4.2,0.6s2.1,1,2.9,1.8
		c0.8,0.8,1.4,1.8,1.8,2.9S133.3,7.8,133.3,9.3z M130.6,9.4c0-1-0.1-2-0.4-2.9s-0.7-1.7-1.2-2.3S127.8,3,127,2.7s-1.9-0.5-3.2-0.5
		h-2.6V17h2.6c1.2,0,2.2-0.2,3.1-0.5c0.8-0.3,1.5-0.8,2.1-1.4s1-1.4,1.3-2.4S130.6,10.7,130.6,9.4z"/>
	<path fill="#FFFFFF" d="M152.9,18.2c0.1,0.2,0.1,0.4,0.1,0.5c0,0.1,0,0.2-0.1,0.3c-0.1,0.1-0.2,0.1-0.4,0.1s-0.4,0-0.7,0
		s-0.5,0-0.7,0s-0.3,0-0.4-0.1c-0.1,0-0.2-0.1-0.2-0.1c0-0.1-0.1-0.1-0.1-0.2l-1.6-4.6h-7.9l-1.6,4.6c0,0.1-0.1,0.2-0.1,0.2
		c0,0.1-0.1,0.1-0.2,0.2c-0.1,0-0.2,0.1-0.4,0.1s-0.4,0-0.7,0c-0.3,0-0.5,0-0.7,0s-0.3-0.1-0.4-0.1s-0.1-0.2-0.1-0.3
		c0-0.1,0-0.3,0.1-0.5l6.4-17.7c0-0.1,0.1-0.2,0.2-0.3c0.1-0.1,0.2-0.1,0.3-0.2s0.3-0.1,0.5-0.1s0.4,0,0.7,0c0.3,0,0.6,0,0.8,0
		s0.4,0,0.5,0.1c0.1,0,0.2,0.1,0.3,0.2c0.1,0.1,0.1,0.2,0.2,0.3L152.9,18.2z M144.6,2.5L144.6,2.5l-3.3,9.5h6.6L144.6,2.5z"/>
</g>
<path fill="#FFFFFF" d="M104.3,73.5c-4.5,0-8.1-0.7-10.7-2.1l0.6-5.2c2.9,2.2,6.3,3.3,10.2,3.3c1.1,0,2.2-0.1,3.1-0.3
	c0.9-0.2,1.8-0.5,2.5-0.9c0.7-0.4,1.2-0.9,1.6-1.6c0.4-0.6,0.6-1.4,0.6-2.2c0-0.9-0.2-1.6-0.6-2.3c-0.4-0.6-1-1.2-1.7-1.7
	c-0.7-0.5-1.6-0.9-2.7-1.4s-2.2-0.8-3.5-1.3l-3.3-1.1c-2.6-0.9-4.5-2-5.7-3.2c-1.1-1.3-1.7-2.8-1.7-4.6c0-0.9,0.2-2,0.6-3.1
	c0.4-1.1,1-2.1,1.9-3.1c0.9-0.9,2.1-1.7,3.6-2.4c1.5-0.6,3.4-0.9,5.7-0.9c0.9,0,1.9,0.1,2.9,0.2c1,0.1,2,0.3,2.9,0.5
	c0.9,0.2,1.8,0.4,2.5,0.7c0.8,0.3,1.4,0.6,2,0.8l-0.5,4.7c-3.9-2-7-2.9-9.4-2.9c-0.9,0-1.8,0.1-2.7,0.3c-0.9,0.2-1.7,0.5-2.4,0.9
	c-0.7,0.4-1.2,0.9-1.7,1.5c-0.4,0.6-0.6,1.3-0.6,2.1c0,1.4,0.6,2.4,1.7,3.2c1.2,0.8,2.9,1.5,5.3,2.3c0.7,0.2,1.1,0.4,1.4,0.4
	c0.3,0.1,0.6,0.1,0.9,0.2c0.3,0.1,0.7,0.2,1.1,0.4c0.5,0.2,1.3,0.5,2.3,1l1.6,0.8c0.4,0.2,0.7,0.4,1,0.6s0.5,0.3,0.6,0.5l1.2,1.2
	c0.7,0.7,1.2,1.6,1.4,2.4c0.2,0.9,0.4,1.9,0.5,3.1c0,0.9-0.1,1.9-0.4,3c-0.3,1-0.9,2-1.8,2.9c-0.9,0.9-2.2,1.7-3.8,2.3
	C109.4,73.2,107.1,73.5,104.3,73.5z"/>
<path fill="#FFFFFF" d="M146.9,72.9h-4.7l-3.1-8.8h-12.5l-3.1,8.8h-4.7l11.7-32.7h4.7L146.9,72.9z M137.7,60l-4.9-13.6L128,60H137.7
	z"/>
<path fill="#FFFFFF" d="M209.4,72.9h-3.8l-17.1-25.8v25.8H184V40.2h4.9l16.1,24.5V40.2h4.5V72.9z"/>
<path fill="#FFFFFF" d="M241.6,72.9h-4.7l-3.1-8.8h-12.5l-3.1,8.8h-4.7l11.7-32.7h4.7L241.6,72.9z M232.4,60l-4.9-13.6L222.7,60
	H232.4z"/>
<path fill="#FFFFFF" d="M39.4,39.3c-5.7,10.7-12.8,14.6-13,23.9c-0.1,7,5.8,12.6,13,12.6c7.2,0,13-5.7,13-12.6
	C52.4,56.2,45.4,49.7,39.4,39.3z M37.1,71.8c8.5-1.9,11.3-11.3,11.3-11.3C50,73.3,37.1,71.8,37.1,71.8z"/>
<path fill="#FFFFFF" d="M17.8,76.4V40.2h0c-0.4-5.1-4.5-6.3-4.5-6.3v8.7l0,0V75c0,0-1.2,10.9-13.3,11.7l4.6,1.5
	C4.6,88.2,16.5,87.6,17.8,76.4z"/>
<path fill="#FFFFFF" d="M74.7,42.5L67.5,54l-8.7-13.4h-0.1c-3.4-5-7.2-4.1-7.2-4.1l7.8,12.1l0-0.1l5.8,9.2v14.9h5V57.8L76.8,47
	l6.8-10.6C83.6,36.3,79.5,33.9,74.7,42.5z"/>
<path fill="#FFFFFF" d="M172.5,48.6L172.5,48.6l0,8.3c0,1.6-0.1,3.1-0.3,4.6c-0.2,1.5-0.6,2.9-1.3,4c-0.7,1.2-1.6,2.1-2.8,2.9
	s-2.8,1.1-4.7,1.1c-1.9,0-3.5-0.4-4.7-1.1c-1.2-0.7-2.1-1.7-2.7-2.9s-1.1-2.6-1.3-4.1c-0.2-1.5-0.3-3.1-0.3-4.6v-7.5
	c0.8-10.1-4.5-9.1-4.5-9.1V47v0.9V51v8c0,4.6,1.1,8.2,3.4,10.7c2.3,2.5,5.6,3.8,10.1,3.8c4.5,0,7.9-1.3,10.1-3.8
	c2.3-2.5,3.4-6.1,3.4-10.7V48.6v-8.4C176.9,40.2,172.8,41.3,172.5,48.6z"/>
</svg>
