<?xml version="1.0" encoding="utf-8"?>
<!-- Generator: Adobe Illustrator 19.1.0, SVG Export Plug-In . SVG Version: 6.00 Build 0)  -->
<svg version="1.1" id="Layer_1" xmlns="http://www.w3.org/2000/svg" xmlns:xlink="http://www.w3.org/1999/xlink" x="0px" y="0px"
	 width="70.2px" height="70.2px" viewBox="0 0 70.2 70.2" enable-background="new 0 0 70.2 70.2" xml:space="preserve">
<circle fill="#7CC66D" cx="35.1" cy="35.1" r="35.1"/>
<g>
	<circle fill="#FFFFFF" cx="35.6" cy="17.6" r="7"/>
	<path fill="#FFFFFF" d="M51.7,16c-0.6-1.3-2.1-1.8-3.3-1.2c-1.3,0.6-1.8,2.1-1.2,3.3L52,28.5c-4-0.5-8.1-1.2-12.1-1.5
		s-8.1-0.1-12.1,0.3c-2.1,0.2-4.1,0.5-6.2,0.8c-1.1,0.1-2.2,0.3-3.3,0.4l4.8-10.4c0.6-1.3,0-2.8-1.2-3.3c-1.3-0.6-2.8,0-3.3,1.2
		l-6.8,14.5c-0.4,0.8-0.3,1.8,0.2,2.5c0.5,0.7,1.2,1,2,1c0.1,0,0.2,0,0.3,0l11-1.4c0,0,0,0,0,0c0,2.2,0.5,4.3,1.4,6.1
		c0.4,0.8,0.6,1.7,0.7,2.5l0.3,4.1c0.2,2.2-0.1,4.4-0.8,6.4h17.2c-0.7-2-1-4.2-0.8-6.4l0.3-4.1c0.1-0.9,0.3-1.8,0.7-2.5
		c0.9-1.8,1.4-3.8,1.4-6L55.9,34c0.1,0,0.2,0,0.3,0c0.8,0,1.6-0.4,2-1c0.5-0.7,0.6-1.7,0.3-2.5L51.7,16z M36.1,49.7
		c-1.6,0-2.7-1-2.7-2.1c0-1.2,1.1-2.1,2.7-2.1c1.6,0,2.2,1,2.2,2.1C38.3,48.8,37.7,49.7,36.1,49.7z M33.5,40.1c0-1.1,0.5-2,2.1-2
		c1.5,0,2.6,0.9,2.6,2c0,1.1-1,2-2.6,2C34.1,42.1,33.5,41.2,33.5,40.1z M36.2,34.6c-1.8,0-3.1-1.1-3.1-2.4c0-1.3,1.3-2.4,3.1-2.4
		c1.8,0,2.5,1.1,2.5,2.4C38.7,33.6,38,34.6,36.2,34.6z"/>
	<path fill="#FFFFFF" d="M45.3,53.1h-0.7H26.5h-0.7c-1.1,0-2,0.9-2,2.1v4.4h23.5v-4.4C47.3,54,46.4,53.1,45.3,53.1z"/>
</g>
</svg>
