<?xml version="1.0" encoding="utf-8"?>
<!-- Generator: Adobe Illustrator 19.1.0, SVG Export Plug-In . SVG Version: 6.00 Build 0)  -->
<svg version="1.1" id="Layer_1" xmlns="http://www.w3.org/2000/svg" xmlns:xlink="http://www.w3.org/1999/xlink" x="0px" y="0px"
	 width="70.2px" height="70.2px" viewBox="0 0 70.2 70.2" enable-background="new 0 0 70.2 70.2" xml:space="preserve">
<g>
	<path fill="#7CC66D" d="M32.3,14.7c1.3-0.7,2.7-1.1,4.1-1.2c-0.6-0.2-1.3-0.4-2-0.4c-2.6,0-4.8,1.9-5.3,4.4
		C29.9,16.4,31,15.5,32.3,14.7z"/>
	<path fill="#7CC66D" d="M36.5,31.2c-0.1,0-0.1,0-0.1,0l-0.1,0.1c-0.1,0-0.1,0.1-0.2,0l-0.1,0c0,0-0.1,0.1-0.1,0.1
		c-0.4,0.1-0.6,0.5-0.7,0.8C35,32.3,35.1,33,35.3,33H37c0.2,0,0.3-0.6,0.2-0.8C37.1,32,36.9,31.2,36.5,31.2z"/>
	<path fill="#7CC66D" d="M42.5,28L42.5,28c0-0.9,1.3-1.7,1.3-2.9c0-0.9,0-1.1-0.4-2.1H40C41.8,25,42.5,25.6,42.5,28z"/>
	<path fill="#7CC66D" d="M39.2,22h0.7h0.7h2h0.5c0,0,0-0.7,0-0.8c0-0.3-0.1-1.1-0.1-1.5c-0.1-0.4-0.2-0.8-0.3-1.2
		c-0.4-1.1-1.1-2-2.1-2.7c-0.3-0.2-0.6-0.4-1-0.5c-0.3-0.1-0.7-0.3-1.1-0.4c-0.1,0-0.2-0.1-0.3-0.1c-0.4-0.1-0.8-0.1-1.2-0.1
		c-1.3,0-2.8,0.4-4,1.1c-1.4,0.8-2.5,1.8-3.2,3.1c-0.2,0.3-0.3,0.6-0.5,1c-0.1,0.3-0.2,0.6-0.3,1c-0.1,0.3-0.1,0.7-0.2,1
		c-0.1,1.2,0,2.7,0.7,4.4c0,0.1,0,0.1,0.1,0.2c0.1-0.5,0.3-1.1,0.6-1.6c0.1-0.3,0.3-0.6,0.5-0.9c0.1-0.2,0.2-0.3,0.4-0.5
		c0.1-0.1,0.2-0.2,0.3-0.3c0.1-0.1,0.1-0.1,0.1-0.2c0.3-0.3,0.7-0.7,1.2-0.9c0.3-0.2,0.6-0.3,1-0.5c0.3-0.1,0.6,0.2,1,0.1
		c0.5-0.1,1.1,0.3,1.7,0.3H39.2z"/>
	<path fill="#7CC66D" d="M35.1,0C15.7,0,0,15.7,0,35.1c0,19.4,15.7,35.1,35.1,35.1c19.4,0,35.1-15.7,35.1-35.1
		C70.2,15.7,54.5,0,35.1,0z M52.6,29.3c0.7-0.5,1.4-0.9,2-1.6c0.9-1.2,1.2-3,1.2-4.4c0-0.1,0-0.2,0-0.2c0-0.1,0-0.2,0-0.2
		s0.1,0,0.1,0.1c0,0,0.1,0.1,0.2,0.2c0.9,1,1.3,2.3,1.3,3.6c0,0.9-0.3,1.7-0.7,2.5c-0.4,0.7-1,1.3-1.7,1.8c-0.5,0.4-1.1,0.8-1.6,1.2
		c-0.8,0.9-1.1,2-1.2,3.2c0,0.3,0,0.5,0,0.8c0,0.1,0,0.7,0,0.7s-0.1,0-0.2-0.1c-0.7-0.6-1.1-1.5-1.3-2.4c0-0.1,0-0.2-0.1-0.3
		C50.4,32.3,51.2,30.5,52.6,29.3z M18.1,29.3c0.7-0.5,1.4-0.9,2-1.6c0.9-1.2,1.2-3,1.2-4.4c0-0.1,0-0.2,0-0.2c0-0.1,0-0.2,0-0.2
		s0.1,0,0.1,0.1c0,0,0.1,0.1,0.2,0.2c0.9,1,1.3,2.3,1.3,3.6c0,0.9-0.3,1.7-0.7,2.5c-0.4,0.7-1,1.3-1.7,1.8c-0.5,0.4-1.1,0.8-1.6,1.2
		c-0.8,0.9-1.1,2-1.2,3.2c0,0.3,0,0.5,0,0.8c0,0.1,0,0.7,0,0.7s-0.1,0-0.2-0.1c-0.7-0.6-1.1-1.5-1.3-2.4c0-0.1,0-0.2-0.1-0.3
		C15.9,32.3,16.7,30.5,18.1,29.3z M21.1,53.8c-5.6-1.1-9.2-2.8-9.2-4.7c0-1.9,3.6-3.6,9.2-4.7c0.4-0.1,0.6,0.3,0.2,0.4
		c-3,1.2-5.8,2.7-5.8,4.3s2.8,3.1,5.8,4.3C21.7,53.5,21.5,53.9,21.1,53.8z M46.7,52.5c2.2-0.9,3.3-2.1,3.3-3.4
		c0-1.2-1.5-2.3-3.5-3.2V49c0,1.4-4.8,2.5-11,2.5s-11-1.1-11-2.5v-3.2c-2,0.9-2.7,2-2.7,3.2c0,1.3,1.6,2.5,3.8,3.4
		c0.2,0.1,0,0.3-0.2,0.3c-3.9-0.9-6.6-2.2-6.6-3.7c0-1.4,1.7-2.7,5.7-3.6v-4.9c0-2,2.3-2.6,4.3-2.6h3.6c0.7,0,1.2-1.2,1-1.9
		c-0.3-1.1-1.1-2.3-1.9-3c-0.8-0.7-1.4-1.6-1.8-2.5c-0.3-0.8-0.5-1.6-0.9-2.4c-0.8-1.6-1.4-3.4-1.4-5.2c0-1.1,0.1-2.2,0.5-3.2
		c-0.1-0.4-0.1-0.9-0.1-1.3c0-3.7,3-6.7,6.7-6.7c1.8,0,3.5,0.7,4.7,1.9c2.8,0.8,4.1,2.7,4.6,4.3c0.5,1.4,0.6,2.7,0.6,3.3
		c0.6,1,0.9,2.2,0.9,3.4c0,1.1-0.3,2.3-0.8,3.2c-0.3,0.5-0.6,1-1,1.4c-0.3,0.4-0.7,0.6-0.9,1.1c-0.5,1-0.9,2-1.7,2.7
		c-0.8,0.8-1.7,1.7-2.1,2.9c-0.2,0.7,0.3,1.9,1,1.9h4.1c2,0,2.6,0.6,2.6,2.6v4.9c4,0.9,6.5,2.2,6.5,3.6c0,1.5-2,2.8-6,3.7
		C46.8,52.8,46.6,52.5,46.7,52.5z M51.6,53.8c-0.4,0.1-0.6-0.3-0.2-0.4c3-1.2,5.8-2.7,5.8-4.3c0-1.6-2.8-3.1-5.8-4.3
		c-0.3-0.1-0.1-0.5,0.2-0.4c5.6,1.1,9.2,2.8,9.2,4.7C60.8,51,57.2,52.7,51.6,53.8z"/>
</g>
</svg>
