<?xml version="1.0" encoding="utf-8"?>
<!-- Generator: Adobe Illustrator 19.1.0, SVG Export Plug-In . SVG Version: 6.00 Build 0)  -->
<svg version="1.1" id="Layer_1" xmlns="http://www.w3.org/2000/svg" xmlns:xlink="http://www.w3.org/1999/xlink" x="0px" y="0px"
	 width="70.2px" height="70.2px" viewBox="0 0 70.2 70.2" enable-background="new 0 0 70.2 70.2" xml:space="preserve">
<g>
	<circle fill="#7CC66D" cx="35.1" cy="35.1" r="35.1"/>
	<path fill="#FFFFFF" d="M44.7,52.5H13.8v-2.9c0.6,0.4,1.3,0.7,2.1,0.7h26.7L44.7,52.5z"/>
	<path fill="#FFFFFF" d="M27.2,10.2c-1.7,0-3,1.3-3,3c0,1,0.5,1.9,1.3,2.5c0.3-0.9,0.9-1.8,1.6-2.5c0.7-0.7,1.6-1.3,2.5-1.6
		C29.1,10.7,28.2,10.2,27.2,10.2z"/>
	<path fill="#FFFFFF" d="M26.3,18.1c0,3.2,2.6,5.7,5.7,5.7c3.2,0,5.7-2.6,5.7-5.7c0-3.2-2.6-5.7-5.7-5.7c-0.7,0-1.3,0.1-1.9,0.3
		c-1.6,0.6-2.9,1.9-3.5,3.5C26.4,16.8,26.3,17.4,26.3,18.1z"/>
	<path fill="#FFFFFF" d="M23.2,26c-1.3,3-4.3,10.6-5.1,12.5h10c0.2-0.5,0.5-1.1,0.7-1.6c0.9-1.7,3.9-2.6,3.2-5.1c0,0,0,0,0-0.1
		l2.6,2.5c0.2,0.2,0.4,0.3,0.7,0.4l7.2,2.7c0.2,0.1,0.5,0.1,0.7,0.1c0.8,0,1.6-0.5,1.9-1.3c0.4-1.1-0.1-2.3-1.2-2.7l-6.3-2.4
		c-0.3-0.1-0.6-0.3-0.8-0.5c0,0-5.6-5.3-5.6-5.3c-0.2-0.2-0.5-0.4-0.9-0.5c-0.1,0-0.2-0.1-0.2-0.1c-0.1,0-0.2-0.1-0.3-0.1
		c-1.4-0.4-2.9-0.7-4.4-0.6c-0.5,0-1,0.2-1.4,0.4C23.6,24.9,23.5,25.5,23.2,26z"/>
	<path fill="#FFFFFF" d="M15.9,49.1h27.2l2.6,2.6c0.2,0.3,0.5,0.4,0.9,0.6c0.3,0.1,0.6,0.2,1,0.2h11.1c1.4,0,2.6-1.2,2.6-2.6
		c0-1.4-1.2-2.5-2.6-2.5h-10l-6.8-6.9c-0.5-0.5-0.8-0.8-1.8-0.8c-1.6,0-24.2,0-24.2,0c-1.1,0-2.1,0.9-2.1,2.1v4.8V47
		C13.8,48.1,14.8,49.1,15.9,49.1z"/>
	<path fill="#FFFFFF" d="M57.5,39.6c0-3.3-2.7-5.9-5.9-5.9c-3.3,0-5.9,2.7-5.9,5.9c0,3.3,2.7,5.9,5.9,5.9
		C54.8,45.5,57.5,42.9,57.5,39.6z"/>
</g>
</svg>
