<?xml version="1.0" encoding="utf-8"?>
<!-- Generator: Adobe Illustrator 19.1.0, SVG Export Plug-In . SVG Version: 6.00 Build 0)  -->
<svg version="1.1" id="Layer_1" xmlns="http://www.w3.org/2000/svg" xmlns:xlink="http://www.w3.org/1999/xlink" x="0px" y="0px"
	 width="70.2px" height="70.2px" viewBox="0 0 70.2 70.2" enable-background="new 0 0 70.2 70.2" xml:space="preserve">
<circle fill="#7CC66D" cx="35.1" cy="35.1" r="35.1"/>
<g>
	<path fill="#FFFFFF" d="M26.6,34.5c0.8-1.8,1.8-3.4,3.2-4.8c1.4-1.4,3-2.5,4.8-3.2c1.8-0.8,3.7-1.1,5.6-1.2
		c-1.1-4.5-4.6-8.2-9.4-9.3c-0.9-0.2-1.8-0.3-2.7-0.3c-5.7,0-10.8,3.9-12.1,9.7c-1.5,6.7,2.7,13.3,9.4,14.8
		C25.4,38.3,25.8,36.4,26.6,34.5z M27.2,25.2L27.2,25.2C27.2,25.2,27.2,25.2,27.2,25.2L27.2,25.2c-0.1,0-0.2,0-0.2-0.1l-2.9-6.8
		c0,0,0-0.1,0-0.1c0,0,0.1-0.1,0.1-0.1c0.5-0.2,1.1-0.4,1.6-0.5c0,0,0,0,0,0c0.1,0,0.2,0.1,0.2,0.1l1.3,7.3
		C27.4,25.1,27.3,25.2,27.2,25.2z M25.1,27.5L25.1,27.5c0,0.1-0.1,0.1-0.2,0.1l-7.3-0.8c0,0-0.1,0-0.1-0.1c0,0,0-0.1,0-0.1
		c0.1-0.6,0.2-1.1,0.4-1.7c0-0.1,0.1-0.1,0.2-0.1c0,0,0,0,0.1,0l7,2.4C25,27.3,25.1,27.4,25.1,27.5z M20.3,35.4l5.5-4.9
		c0,0,0.1,0,0.1,0c0,0,0.1,0,0.1,0l0,0c0.1,0.1,0.1,0.2,0,0.2l-4.3,6c0,0-0.1,0.1-0.1,0.1c0,0-0.1,0-0.1,0c-0.5-0.4-0.9-0.7-1.3-1.2
		c0,0-0.1-0.1,0-0.1C20.2,35.5,20.2,35.5,20.3,35.4z M30.2,25.6l4.3-6c0,0,0.1-0.1,0.1-0.1c0,0,0.1,0,0.1,0c0.5,0.4,0.9,0.7,1.3,1.2
		c0,0,0.1,0.1,0,0.1c0,0,0,0.1-0.1,0.1l-5.5,4.9c0,0-0.1,0-0.1,0c0,0-0.1,0-0.1,0l0,0C30.2,25.8,30.2,25.7,30.2,25.6z M28.4,26.8
		c0.8,0.2,1.3,0.9,1.1,1.7c-0.2,0.8-0.9,1.3-1.7,1.1c-0.8-0.2-1.3-0.9-1.1-1.7C26.9,27.1,27.7,26.6,28.4,26.8z"/>
	<path fill="#FFFFFF" d="M41.4,26.4c-4.8-0.3-9.6,2-12.4,5.9c-3,4.2-3.4,10-0.9,14.6c2.4,4.5,7.3,7.5,12.4,7.5
		c4.7,0,9.1-2.4,11.7-6.3c1.5-2.3,2.3-5,2.3-7.8c0-4.5-2.3-8.9-6-11.5C46.4,27.4,43.9,26.6,41.4,26.4z M44,40.4L44,40.4
		c0-0.1,0.1-0.2,0.2-0.2l8.3-1c0,0,0,0,0,0c0.1,0,0.2,0.1,0.2,0.2c0.1,0.6,0.1,1.3,0,2c0,0.1-0.1,0.2-0.2,0.2l-8.3-0.9
		C44,40.6,44,40.5,44,40.4z M42.2,43.4L42.2,43.4c0,0,0.1,0,0.1,0c0.1,0,0.1,0,0.2,0.1l4.9,6.8c0,0.1,0.1,0.1,0,0.2
		c0,0.1,0,0.1-0.1,0.1c-0.5,0.4-1.1,0.7-1.7,1c0,0-0.1,0-0.1,0c-0.1,0-0.2-0.1-0.2-0.1l-3.2-7.7C42,43.6,42.1,43.5,42.2,43.4z
		 M47.4,30.5l-4.9,6.8c0,0.1-0.1,0.1-0.2,0.1c0,0-0.1,0-0.1,0l0,0c-0.1-0.1-0.1-0.2-0.1-0.3l3.2-7.7c0-0.1,0.1-0.1,0.2-0.1
		c0,0,0.1,0,0.1,0c0.6,0.3,1.2,0.6,1.7,1c0.1,0,0.1,0.1,0.1,0.1C47.4,30.4,47.4,30.4,47.4,30.5z M33.5,50.3l4.9-6.8
		c0-0.1,0.1-0.1,0.2-0.1c0,0,0.1,0,0.1,0l0,0c0.1,0.1,0.1,0.2,0.1,0.3l-3.2,7.7c0,0.1-0.1,0.1-0.2,0.1c0,0-0.1,0-0.1,0
		c-0.6-0.3-1.2-0.6-1.7-1c-0.1,0-0.1-0.1-0.1-0.1C33.5,50.4,33.5,50.3,33.5,50.3z M28.4,41.5c-0.1,0-0.2-0.1-0.2-0.2
		c0-0.1,0-0.1,0-0.2c0-0.2,0-0.3,0-0.5c0-0.4,0-0.8,0-1.2c0-0.1,0.1-0.2,0.2-0.2c0,0,0,0,0,0l4.4,0.5l0.9,0.1l0.9,0.1l2.1,0.2
		c0.1,0,0.2,0.1,0.2,0.2v0c0,0.1-0.1,0.2-0.2,0.2l-5.3,0.6L28.4,41.5z M33.5,30.3c0-0.1,0-0.1,0.1-0.1c0,0,0.1,0,0.1-0.1
		c0.5-0.3,1-0.6,1.6-0.9c0,0,0.1,0,0.1,0c0.1,0,0.2,0.1,0.2,0.1l0.7,1.7l1.9,4.5l0.2,0.5l0.2,0.5l0.2,0.5c0,0.1,0,0.2-0.1,0.3l0,0
		c0,0-0.1,0-0.1,0l0,0c-0.1,0-0.1,0-0.2-0.1L38.2,37l-0.3-0.4l-0.3-0.4l-4.1-5.7C33.5,30.4,33.5,30.4,33.5,30.3z M40.4,42
		c-0.9,0-1.6-0.7-1.6-1.6c0-0.9,0.7-1.6,1.6-1.6c0.9,0,1.6,0.7,1.6,1.6C42.1,41.3,41.3,42,40.4,42z"/>
</g>
</svg>
