<?xml version="1.0" encoding="utf-8"?>
<!-- Generator: Adobe Illustrator 19.1.0, SVG Export Plug-In . SVG Version: 6.00 Build 0)  -->
<svg version="1.1" id="Layer_1" xmlns="http://www.w3.org/2000/svg" xmlns:xlink="http://www.w3.org/1999/xlink" x="0px" y="0px"
	 width="70.2px" height="70.2px" viewBox="0 0 70.2 70.2" enable-background="new 0 0 70.2 70.2" xml:space="preserve">
<g>
	<path fill="#7CC66D" d="M32.9,52.9h3.5c0.4,0,0.6-0.2,0.5-0.5c-0.2-0.6-0.7-1-1.5-1.1c-0.1,0-0.2,0-0.3,0l-0.2,0.1
		c-0.1,0.1-0.3,0.1-0.4,0l-0.2-0.1c-0.1,0-0.2-0.1-0.3,0c-0.8,0.1-1.3,0.6-1.5,1.1C32.3,52.6,32.5,52.9,32.9,52.9z"/>
	<path fill="#7CC66D" d="M36.4,54.1h-3.5c-0.4,0-0.6,0.2-0.5,0.5c0.3,0.7,1.2,1.1,2.3,1.1s2-0.5,2.3-1.1
		C37,54.4,36.7,54.1,36.4,54.1z"/>
	<path fill="#7CC66D" d="M28.7,40.1c-0.2,0-0.3,0-0.5,0c-0.3,0-0.5,0-0.8,0.1c-0.4,0.1-0.8,0.3-1.2,0.6c-0.7,0.6-1.1,1.4-1.1,2.3
		c0,1.7,1.4,3,3,3c0.2,0,0.3,0,0.5,0c0.4-0.1,0.9-0.2,1.2-0.5c0.4-0.2,0.6-0.6,0.9-0.9c0.3-0.5,0.4-1,0.4-1.6
		C31.3,41.6,30.2,40.3,28.7,40.1z M30.4,43.6c-0.1,0.2-0.2,0.3-0.4,0.3c-0.2,0.1-0.5,0.1-0.7,0.2c-0.3,0.1-0.7,0.1-1,0.1
		c-0.2,0-0.3,0-0.5,0c-0.5,0-1-0.1-1.5-0.3c-0.4-0.1-0.6-0.6-0.5-0.9c0.1-0.4,0.6-0.6,0.9-0.5c0.1,0,0.1,0,0.2,0.1
		c0.4,0.1,0.8,0.2,1.3,0.2c0.1,0,0.1,0,0.2,0c0.4,0,0.8-0.1,1.1-0.2c0.1,0,0.1,0,0.2,0c0.3,0,0.7,0.2,0.8,0.5
		C30.6,43.2,30.5,43.5,30.4,43.6z"/>
	<path fill="#7CC66D" d="M36.7,30c3.9,0,7.7,0.1,11.5,0.1h1c0-0.2,0-0.5-0.1-0.8c0-0.6-0.1-1.3-0.3-2c-0.2-0.8-0.4-1.7-0.7-2.7
		c-1-2.5-2.5-4.4-4.6-5.8c-0.6-0.4-1.3-0.8-2-1.1c-0.7-0.3-1.4-0.5-2.1-0.7c-0.2-0.1-0.5-0.1-0.7-0.2c-0.8-0.2-1.7-0.2-2.5-0.2
		c-2.8,0-5.8,0.8-8.5,2.3c-2.9,1.6-5.2,3.8-6.7,6.5c-0.4,0.7-0.7,1.4-1,2.1c-0.3,0.7-0.5,1.3-0.6,2c-0.2,0.7-0.3,1.4-0.4,2.1
		C19,32.4,19,33.2,19,34c0.1,2.3,0.6,4.7,1.6,7.2c0.1,0.1,0.1,0.3,0.2,0.4c1.1-4.3,3.6-8.3,7.8-10.2C31,30.3,33.9,30,36.7,30z"/>
	<path fill="#7CC66D" d="M26.6,16.8c2.8-1.5,5.9-2.5,8.9-2.6c-1.4-0.6-2.9-0.9-4.5-0.9c-3,0-5.9,1.2-8,3.3c-1.7,1.7-2.8,3.9-3.2,6.2
		C21.5,20.4,23.9,18.3,26.6,16.8z"/>
	<path fill="#7CC66D" d="M42.7,32.6c3.8,2.6,6.3,6.9,6.3,11.9c0,0.1,0,0.1,0,0.2c1.5-2,2.3-4.3,2.3-6.9c0-1.8-0.4-3.6-1.2-5.2H42.7z
		"/>
	<path fill="#7CC66D" d="M35.1,0C15.7,0,0,15.7,0,35.1c0,19.4,15.7,35.1,35.1,35.1s35.1-15.7,35.1-35.1C70.2,15.7,54.5,0,35.1,0z
		 M49.7,47.6c-0.4,0.4-0.9,0.9-1.4,1.2c-1.8,5.8-7.3,10-13.7,10c-7.3,0-13.3-5.4-14.3-12.5c0,0,0,0,0,0c-2.4-4.2-3.7-8.3-3.8-12.3
		c-0.1-2.3,0.3-4.5,1-6.6c-0.2-0.9-0.3-1.8-0.3-2.8c0-3.7,1.4-7.2,4.1-9.8s6.1-4.1,9.8-4.1c3.7,0,7.2,1.4,9.8,4.1c0,0,0,0,0,0
		c2.4,0.7,4.4,1.8,6,3.3c1.6,1.5,2.8,3.4,3.7,5.6c1.1,2.9,1.2,5.6,1.2,6.9c1.3,2.1,2,4.6,2,7.1C53.7,41.5,52.3,45,49.7,47.6z"/>
	<path fill="#7CC66D" d="M41,40c-1.7,0-3,1.4-3,3s1.4,3,3,3c1.7,0,3-1.4,3-3S42.7,40,41,40z M43.3,43c0.1,0.4-0.1,0.8-0.5,0.9
		c-0.5,0.2-1.1,0.2-1.7,0.2c-0.7,0-1.3-0.1-1.9-0.3c-0.4-0.1-0.6-0.6-0.5-0.9c0.1-0.4,0.6-0.6,0.9-0.5c0.4,0.1,1,0.2,1.5,0.2
		c0.5,0,0.9-0.1,1.3-0.2C42.8,42.4,43.2,42.6,43.3,43z"/>
</g>
</svg>
