<?xml version="1.0" encoding="utf-8"?>
<!-- Generator: Adobe Illustrator 19.1.0, SVG Export Plug-In . SVG Version: 6.00 Build 0)  -->
<svg version="1.1" id="Layer_1" xmlns="http://www.w3.org/2000/svg" xmlns:xlink="http://www.w3.org/1999/xlink" x="0px" y="0px"
	 width="70.2px" height="70.2px" viewBox="0 0 70.2 70.2" enable-background="new 0 0 70.2 70.2" xml:space="preserve">
<circle fill="#7CC66D" cx="35.1" cy="35.1" r="35.1"/>
<g>
	<path fill="#FFFFFF" d="M51,36.1c0,0.1,0,0.2,0,0.2c0,0.6-0.2,1.3-0.5,1.9c-0.3,0.5-0.8,1-1.3,1.5c-1,0.8-2.5,1.6-4.3,2.2
		c-3.6,1.2-8.4,1.9-13.4,1.9c-5,0-8.9-0.7-11.5-2c-0.4-0.2-0.9-0.5-1.2-0.7c-3.5,1.9-5.8,3.9-5.8,5.4c0,4.2,10,7.5,22.3,7.5
		c12.3,0,22.3-3.4,22.3-7.5C57.4,43.6,56.2,38.7,51,36.1z M47.2,50.3c-4.4,1-8.3,0.8-8.6-0.5c-0.3-1.3,5.5-5.2,10-6.2
		c4.4-1,5.8,1.3,6.1,2.6C55,47.4,51.6,49.2,47.2,50.3z"/>
	<path fill="#FFFFFF" d="M19.9,40.5c2.3,1.3,6,2.1,11.5,2.1c10.2,0,18.5-2.8,18.5-6.3c0-0.2,0-0.5,0-0.7c-0.1-1.7-0.7-3.9-2.3-5.7
		c-2.8,0.9-6.4,1.4-10.1,1.4c-4.1,0-7.9-0.6-10.8-1.7c-0.4-0.2-0.9-0.3-1.2-0.5c-4.9,2.2-8.3,5.2-8.3,7.2
		C17.1,37.9,18,39.4,19.9,40.5z M42.6,33.6c2.6-0.6,3.8,0.3,4.3,1.2c0.2,0.3,0.3,0.6,0.3,0.8c0.2,1-2.3,2.5-5.7,3.2
		c-3.4,0.8-6.3,0.6-6.6-0.4c-0.2-0.7,2.2-2.6,4.8-3.8C40.7,34.2,41.7,33.8,42.6,33.6z"/>
	<path fill="#FFFFFF" d="M25.5,27.9c0.2,0.1,0.4,0.2,0.7,0.3c0.2,0.1,0.5,0.2,0.8,0.3c2.7,1,6.4,1.7,10.5,1.7c3.5,0,6.7-0.4,9.2-1.2
		c0.2-0.1,0.4-0.1,0.6-0.2c0.2-0.1,0.4-0.1,0.6-0.2c2.6-1,4.2-2.3,4.2-3.8c0-3-11.7-8.7-19.8-8.7c-8.1,0-9.6,5.7-9.6,8.7
		C22.8,25.9,23.8,27,25.5,27.9z M40.9,25.4c0.1-0.8,0.7-1.6,2.1-1.9c0.6-0.1,1.2-0.2,1.9-0.2c2,0,4.1,0.6,4.3,1.2
		c0.2,0.8-1.3,1.9-3.4,2.5c-0.1,0-0.2,0.1-0.3,0.1c-0.2,0.1-0.4,0.1-0.6,0.1c-0.4,0.1-0.7,0.1-1.1,0.2c-0.3,0-0.5,0-0.8,0
		c-1.1,0-1.9-0.3-2.1-0.8v0c0-0.2-0.1-0.4-0.1-0.6C40.8,25.8,40.8,25.6,40.9,25.4z"/>
</g>
</svg>
