<?xml version="1.0" encoding="utf-8"?>
<!-- Generator: Adobe Illustrator 19.1.0, SVG Export Plug-In . SVG Version: 6.00 Build 0)  -->
<svg version="1.1" id="Layer_1" xmlns="http://www.w3.org/2000/svg" xmlns:xlink="http://www.w3.org/1999/xlink" x="0px" y="0px"
	 width="70.2px" height="70.2px" viewBox="0 0 70.2 70.2" enable-background="new 0 0 70.2 70.2" xml:space="preserve">
<g>
	<path fill="#7CC66D" d="M36.9,52.8h3.5c0.4,0,0.6-0.2,0.5-0.5c-0.2-0.6-0.7-1-1.5-1.1c-0.1,0-0.2,0-0.3,0l-0.2,0.1
		c-0.1,0.1-0.3,0.1-0.4,0l-0.2-0.1c-0.1,0-0.2-0.1-0.3,0c-0.8,0.1-1.3,0.6-1.5,1.1C36.3,52.6,36.5,52.8,36.9,52.8z"/>
	<path fill="#7CC66D" d="M32.7,40.1c-0.2,0-0.3,0-0.5,0c-0.3,0-0.5,0-0.8,0.1c-0.4,0.1-0.8,0.3-1.2,0.6c-0.7,0.6-1.1,1.4-1.1,2.3
		c0,1.7,1.4,3,3,3c0.2,0,0.3,0,0.5,0c0.4-0.1,0.9-0.2,1.2-0.5c0.4-0.2,0.6-0.6,0.9-0.9c0.3-0.5,0.4-1,0.4-1.6
		C35.3,41.6,34.2,40.3,32.7,40.1z M34.4,43.6c-0.1,0.2-0.2,0.3-0.4,0.3c-0.2,0.1-0.5,0.1-0.7,0.2c-0.3,0.1-0.7,0.1-1,0.1
		c-0.2,0-0.3,0-0.5,0c-0.5,0-1-0.1-1.5-0.3c-0.4-0.1-0.6-0.6-0.5-0.9c0.1-0.4,0.6-0.6,0.9-0.5c0.1,0,0.1,0,0.2,0.1
		c0.4,0.1,0.8,0.2,1.3,0.2c0.1,0,0.1,0,0.2,0c0.4,0,0.8-0.1,1.1-0.2c0.1,0,0.1,0,0.2,0c0.3,0,0.7,0.2,0.8,0.5
		C34.6,43.2,34.5,43.5,34.4,43.6z"/>
	<path fill="#7CC66D" d="M40.4,54.1h-3.5c-0.4,0-0.6,0.2-0.5,0.5c0.3,0.7,1.2,1.1,2.3,1.1s2-0.5,2.3-1.1
		C41,54.3,40.7,54.1,40.4,54.1z"/>
	<path fill="#7CC66D" d="M40.7,30c3.9,0,7.7,0.1,11.5,0.1h1c0-0.2,0-0.5-0.1-0.8c0-0.6-0.1-1.3-0.3-2c-0.2-0.8-0.4-1.7-0.7-2.7
		c-1-2.5-2.5-4.4-4.6-5.8c-0.6-0.4-1.3-0.8-2-1.1c-0.7-0.3-1.4-0.5-2.1-0.7c-0.2-0.1-0.5-0.1-0.7-0.2c-0.8-0.2-1.7-0.2-2.5-0.2
		c-2.8,0-5.8,0.8-8.5,2.3c-2.9,1.6-5.2,3.8-6.7,6.5c-0.4,0.7-0.7,1.4-1,2.1c-0.3,0.7-0.5,1.3-0.6,2c-0.2,0.7-0.3,1.4-0.4,2.1
		C23,32.4,23,33.2,23,34c0.1,2.3,0.6,4.7,1.6,7.2c0.1,0.1,0.1,0.3,0.2,0.4c1.1-4.3,3.6-8.3,7.8-10.2C35,30.3,37.9,30,40.7,30z"/>
	<path fill="#7CC66D" d="M30.6,16.8c2.8-1.5,5.9-2.5,8.9-2.6c-1.4-0.6-2.9-0.9-4.5-0.9c-3,0-5.9,1.2-8,3.3c-1.7,1.7-2.8,3.9-3.2,6.2
		C25.5,20.4,27.9,18.3,30.6,16.8z"/>
	<path fill="#7CC66D" d="M46.7,32.6c3.8,2.6,6.3,6.9,6.3,11.9c0,0.1,0,0.1,0,0.2c1.5-2,2.3-4.3,2.3-6.9c0-1.8-0.4-3.6-1.2-5.2H46.7z
		"/>
	<path fill="#7CC66D" d="M35.1,0C15.7,0,0,15.7,0,35.1c0,19.4,15.7,35.1,35.1,35.1s35.1-15.7,35.1-35.1C70.2,15.7,54.5,0,35.1,0z
		 M10.5,30.8c0.2-0.6,0.8-0.9,1.4-1.2c0.3-0.2,0.7-0.4,1-0.7c0.1-0.1,0.3-0.1,0.4,0c0.3,0.2,0.7,0.4,1.1,0.6c1,0.5,1.9,0.9,1.4,2.4
		c0,0,0,0,0,0c-0.1,0.2-0.3,0.8-0.6,1.4c-0.2,0.5-0.6,1.2-1,1.5C14.1,35,13.9,35,13.8,35c-0.1-0.1-0.2-0.2-0.3-0.3l-0.3-2.7
		c0,0,0,0,0,0c0,0,0,0,0,0c0,0,0,0,0,0l-0.1,2.7c0,0,0,0.1,0,0.1c0,0.1-0.1,0.2-0.3,0.3c-0.1,0-0.3,0-0.4-0.1
		c-0.8-0.6-1.6-2.5-1.8-2.9C10.5,31.5,10.4,31.1,10.5,30.8z M21.3,45.3c0,0.1-0.1,0.3-0.2,0.4c-0.1,0.1-0.2,0.1-0.4,0.1
		c-0.1,0-0.3-0.1-0.4-0.2l-2.8-2.8c0,0,0,0,0,0c0,0,0,0,0,0c0,0,0,0,0,0l2.4,3.1c0.2,0.2,0.1,0.6-0.1,0.8C19.7,47,19.6,47,19.4,47
		c0,0,0,0,0,0c-1.5,0-4.1-1.2-4.7-1.6c-1.9-1.1-1.4-2.4-0.8-3.9c0.2-0.5,0.4-1.1,0.5-1.7c0-0.1,0.1-0.2,0.2-0.3
		c0.1-0.1,0.2-0.1,0.3-0.1c0.6,0,1.2-0.2,1.8-0.3c0.6-0.1,1.2-0.3,1.7-0.3c0.8,0,1.6,0.3,2.1,1.6C20.6,41.1,21.5,43.9,21.3,45.3z
		 M22,46.5c0,0,0.1,0,0.1,0c0.5,0,1.1,0.3,1.4,0.8c0.4,0.6,0.3,1.4-0.2,1.9c-0.1,0.1-0.2,0.2-0.4,0.3c-0.3,0.2-0.5,0.2-0.8,0.2
		c-0.5,0-1.1-0.3-1.4-0.8c-0.5-0.8-0.2-1.7,0.5-2.2C21.5,46.6,21.8,46.6,22,46.5z M12.7,37.8c-0.5-0.3-0.8-0.9-0.5-1.5
		c0.3-0.5,0.9-0.8,1.5-0.5c0.5,0.3,0.8,0.9,0.5,1.5C13.9,37.8,13.2,38.1,12.7,37.8z M6,35.9c-0.1-0.4-0.2-0.8-0.3-1.2
		c0-0.1,0-0.1,0-0.2c0-0.1,0.1-0.1,0.1-0.2c0.3-0.2,0.6-0.5,0.9-0.8c0.8-0.8,1.5-1.5,2.7-0.6c0.4,0.3,1.9,1.6,2.3,2.5
		c0,0.1,0,0.2,0,0.3c-0.1,0.2-0.3,0.3-0.5,0.3l-2.7-0.6c0,0,0,0,0,0c0,0,0,0,0,0l2.5,1c0.2,0.1,0.3,0.3,0.2,0.5
		c0,0.1-0.1,0.2-0.2,0.2c-0.9,0.5-2.8,0.8-3.3,0.8C6.4,38,6.2,37,6,35.9z M9.7,43.3c-0.4-0.1-0.8-0.2-1.2-0.2
		c-0.1,0-0.3-0.1-0.3-0.2c-0.1-0.4-0.3-0.8-0.4-1.2c-0.3-0.6-0.5-1.3-0.3-1.8c0.1-0.3,0.4-0.6,0.8-0.9c0.4-0.3,2.2-1.2,3.2-1.2
		c0.1,0,0.3,0,0.3,0.2c0.1,0.1,0.1,0.2,0.1,0.4c0,0,0,0.1,0,0.1l-1.5,2.2c0,0,0,0,0,0c0,0,0,0,0,0c0,0,0,0,0,0l1.9-2
		c0.1-0.1,0.3-0.2,0.4-0.1s0.2,0.2,0.3,0.3c0.1,0.5,0,1.3-0.1,1.8c-0.1,0.7-0.3,1.3-0.4,1.5c0,0,0,0,0,0
		C11.8,43.7,10.8,43.5,9.7,43.3z M16.9,54.2C16.8,54.2,16.8,54.2,16.9,54.2c-0.6,0.5-1.2,0.7-1.6,0.7c-0.9,0-1.6-0.7-2.3-1.3
		c-0.4-0.4-0.9-0.8-1.4-1.1c-0.2-0.1-0.3-0.3-0.2-0.5c0.2-0.6,0.3-1.2,0.4-1.7c0.2-1,0.3-2,1-2.5c0.4-0.3,0.9-0.5,1.7-0.5
		c0,0,0,0,0,0c0.7,0,3.6,0.2,4.9,0.9c0.2,0.1,0.3,0.2,0.3,0.4c0,0.2-0.1,0.4-0.2,0.5c0,0-0.1,0.1-0.1,0.1l-3.6,1.6c0,0,0,0,0,0
		c0,0,0,0,0,0c0,0,0,0,0,0c0,0,0,0,0,0l3.8-1c0,0,0.1,0,0.1,0c0.2,0,0.3,0.1,0.4,0.2c0.1,0.2,0.2,0.4,0.1,0.6
		c-0.3,0.7-1,1.6-1.6,2.2C17.8,53.4,17.1,54,16.9,54.2z M25.6,58c-0.4,0.3-0.8,0.6-1.3,0.8c-0.5,0.3-1,0.6-1.5,1
		c-0.1,0.1-0.2,0.1-0.3,0.1c-0.1,0-0.2,0-0.3-0.1c-0.5-0.4-1-0.6-1.5-0.9c-1.4-0.7-2.7-1.4-2-3.4c0.2-0.7,1.4-3.3,2.4-4.3
		c0.1-0.1,0.2-0.1,0.4-0.1c0.1,0,0.1,0,0.2,0c0.2,0.1,0.3,0.3,0.3,0.5l0.3,3.9c0,0,0,0,0,0c0,0,0,0,0,0c0,0,0,0,0,0c0,0,0,0,0,0
		l0.2-3.9c0-0.2,0.1-0.3,0.2-0.4c0.1-0.1,0.2-0.1,0.4-0.1s0.3,0,0.4,0.1c1.1,1,2.3,3.6,2.5,4.3C26.6,56.5,26.4,57.3,25.6,58z
		 M53.7,47.6c-0.4,0.4-0.9,0.9-1.4,1.2c-1.8,5.8-7.3,10-13.7,10c-7.3,0-13.3-5.4-14.3-12.5c0,0,0,0,0,0c-2.1-3.6-3.3-7.2-3.7-10.6
		c0,0.3-0.1,0.6-0.2,0.9c-0.2,0.7-0.7,1-1.6,1c-0.5,0-2.5-0.1-3.4-0.6c-0.2-0.1-0.2-0.3-0.2-0.5c0-0.1,0.1-0.2,0.2-0.2l2.5-1.1
		c0,0,0,0,0,0c0,0,0,0,0,0c0,0,0,0,0,0l-2.6,0.8c-0.1,0-0.3,0-0.4-0.1c-0.1-0.1-0.1-0.3-0.1-0.4c0.4-0.9,1.8-2.3,2.2-2.6
		c1.2-1,1.9-0.3,2.7,0.4c0.2,0.2,0.5,0.4,0.7,0.6c0-2.2,0.3-4.3,1-6.4c-0.2-0.9-0.3-1.8-0.3-2.8c0-3.7,1.4-7.2,4.1-9.8
		s6.1-4.1,9.8-4.1c3.7,0,7.2,1.4,9.8,4.1c0,0,0,0,0,0c2.4,0.7,4.4,1.8,6,3.3c1.6,1.5,2.8,3.4,3.7,5.6c1.1,2.9,1.2,5.6,1.2,6.9
		c1.3,2.1,2,4.6,2,7.1C57.7,41.5,56.3,45,53.7,47.6z"/>
	<path fill="#7CC66D" d="M45,40c-1.7,0-3,1.4-3,3s1.4,3,3,3c1.7,0,3-1.4,3-3S46.7,40,45,40z M47.3,43c0.1,0.4-0.1,0.8-0.5,0.9
		c-0.5,0.2-1.1,0.2-1.7,0.2c-0.7,0-1.3-0.1-1.9-0.3c-0.4-0.1-0.6-0.6-0.5-0.9c0.1-0.4,0.6-0.6,0.9-0.5c0.4,0.1,1,0.2,1.5,0.2
		c0.5,0,0.9-0.1,1.3-0.2C46.8,42.4,47.2,42.6,47.3,43z"/>
</g>
</svg>
