<?xml version="1.0" encoding="utf-8"?>
<!-- Generator: Adobe Illustrator 19.1.0, SVG Export Plug-In . SVG Version: 6.00 Build 0)  -->
<svg version="1.1" id="Layer_1" xmlns="http://www.w3.org/2000/svg" xmlns:xlink="http://www.w3.org/1999/xlink" x="0px" y="0px"
	 width="70.2px" height="70.2px" viewBox="0 0 70.2 70.2" enable-background="new 0 0 70.2 70.2" xml:space="preserve">
<path fill="#7CC66D" d="M35.1,0C15.7,0,0,15.7,0,35.1c0,19.4,15.7,35.1,35.1,35.1s35.1-15.7,35.1-35.1C70.2,15.7,54.5,0,35.1,0z
	 M16.8,27.4c-1.2-2.9-1.7-6.2-2.6-9.2c-0.1-0.5,0.3-0.9,0.7-0.6c1.9,1,4.5,1.9,6.8,2.2c3.9,0.4,7.8,0.6,11.3,1.9
	c3.3,1.3,7.8,4,9.8,7.5c-2.6,0.3-5.1,0.7-7.6,1.5c-0.8-0.6-1.7-1.1-2.7-1.4c-1.5-0.6-3.4-0.7-5-1.2c1.7,0.8,3.5,1.5,5.1,2.4
	c0.4,0.2,0.8,0.4,1.2,0.7c-1.3,0.5-2.5,1.2-3.7,2.1c-1.4,1-2.6,2.3-3.6,3.8c-0.5-0.1-1-0.3-1.5-0.4C21.2,35,18.4,31.2,16.8,27.4z
	 M58.6,27.8c-1.2,3.8-1.8,8.2-3.4,11.8c-2.1,4.9-5.7,9-10.7,11.1c-1.3,0.5-2.6,0.9-4,1.1c-3.9,0.7-8.2,0.7-11.8,2.2
	c-0.3,0.1-0.5,0.2-0.7,0.2c-2.3,0,0.4-7.5,6.6-10.8c1.3-0.7,2.6-1.3,3.9-1.9c0.2-0.1,0.1-0.4-0.1-0.4c0,0,0,0-0.1,0
	c-1.1,0.3-2.3,0.7-3.3,1.1c-4.1,1.5-7.5,3.9-9.2,8c-1.5,3.6-2.2,8-1.1,11.7c0.2,0.5-0.5,0.9-0.9,0.5c-0.3-0.3-0.4-0.8-0.5-1.1
	c-0.4-1.7-0.5-3.5-0.5-5.2c-0.1-4.3,0.5-8.6,1.9-12.6c0.8-2.2,1.7-4.4,3-6.2c0.8-1.2,1.8-2.2,3.1-3.1c1.3-1,2.7-1.7,4.1-2.2
	c0.5-0.2,1-0.4,1.5-0.5c2.3-0.7,4.6-1,7-1.3c4.9-0.6,9.9-0.9,14.3-3.2c0.1-0.1,0.2-0.1,0.3-0.1C58.5,26.9,58.8,27.3,58.6,27.8z"/>
</svg>
